<?xml version="1.0" encoding="iso-8859-1"?>
<!-- Generator: Adobe Illustrator 19.0.0, SVG Export Plug-In . SVG Version: 6.00 Build 0)  -->
<svg version="1.1" id="Layer_1" xmlns="http://www.w3.org/2000/svg" xmlns:xlink="http://www.w3.org/1999/xlink" x="0px" y="0px"
	 viewBox="0 0 511.999 511.999" style="enable-background:new 0 0 511.999 511.999;" xml:space="preserve">
<path style="fill:#FFFF84;" d="M234.442,196.715c0,62.507-50.672,113.179-113.179,113.179S8.084,259.222,8.084,196.715
	S58.756,83.536,121.263,83.536S234.442,134.208,234.442,196.715z"/>
<path style="fill:#FFF873;" d="M234.442,196.715c0,62.507-50.672,113.179-113.179,113.179c-5.491,0-10.887-0.399-16.168-1.154
	c54.847-7.846,97.011-55.008,97.011-112.025S159.941,92.538,105.095,84.691c5.282-0.756,10.678-1.154,16.168-1.154
	C183.77,83.536,234.442,134.208,234.442,196.715z"/>
<path style="fill:#FFD327;" d="M180.547,196.715c0,32.742-26.542,59.284-59.284,59.284s-59.284-26.542-59.284-59.284
	s26.542-59.284,59.284-59.284S180.547,163.973,180.547,196.715z"/>
<path style="fill:#EAAD00;" d="M180.547,196.715c0,32.742-26.542,59.284-59.284,59.284c-5.608,0-11.027-0.795-16.168-2.251
	c24.88-7.04,43.116-29.9,43.116-57.034s-18.236-49.994-43.116-57.034c5.142-1.455,10.56-2.251,16.168-2.251
	C154.005,137.431,180.547,163.973,180.547,196.715z"/>
<path style="fill:#AFF2D8;" d="M503.916,320.673L503.916,320.673c0,59.531-48.258,107.789-107.789,107.789H180.547
	c-59.53,0-107.789-48.258-107.789-107.789l0,0c0-59.53,48.258-107.789,107.789-107.789h4.938
	c13.736-43.73,54.588-75.453,102.852-75.453l0,0c48.264,0,89.116,31.722,102.852,75.453h4.938
	C455.657,212.884,503.916,261.142,503.916,320.673z"/>
<path style="fill:#87CEB7;" d="M503.913,319.857c0.444,59.905-47.984,108.605-107.786,108.605H358.4
	c53.822,0,97.407-43.832,97.007-97.747c-0.397-53.489-44.735-96.274-98.225-96.274h-53.046c-6.467,0-11.605-5.696-10.668-12.345
	c0.756-5.369,5.616-9.213,11.038-9.213h13.427c7.777,0,13.072-8.02,9.875-15.11c-12.666-28.092-37.625-49.444-68.035-57.182
	c8.101-2.062,16.588-3.16,25.331-3.16h6.467c47.224,0,86.954,31.978,98.786,75.453h4.416
	C454.209,212.884,503.473,260.423,503.913,319.857z"/>
<path d="M69.296,239.589c-9.932-12.026-15.401-27.251-15.401-42.873c0-37.147,30.222-67.368,67.368-67.368
	c25.434,0,48.432,14.078,60.017,36.739c2.033,3.975,0.457,8.845-3.518,10.878c-3.974,2.032-8.845,0.458-10.878-3.518
	c-8.807-17.228-26.289-27.93-45.621-27.93c-28.231,0-51.2,22.969-51.2,51.2c0,11.873,4.154,23.442,11.699,32.578
	c2.843,3.442,2.357,8.538-1.085,11.382c-1.507,1.244-3.331,1.851-5.143,1.851C73.205,242.525,70.894,241.524,69.296,239.589z
	 M16.168,196.715c0-57.95,47.145-105.095,105.095-105.095c32.377,0,62.465,14.596,82.548,40.044
	c2.766,3.505,7.85,4.105,11.355,1.338c3.504-2.766,4.104-7.849,1.338-11.355c-23.169-29.358-57.884-46.195-95.241-46.195
	C54.398,75.452,0,129.851,0,196.715c0,32.856,12.926,63.618,36.397,86.616c1.573,1.542,3.615,2.311,5.658,2.311
	c2.097,0,4.192-0.811,5.774-2.426c3.125-3.188,3.073-8.307-0.116-11.431C27.371,251.851,16.168,225.191,16.168,196.715z
	 M191.326,420.378h-10.779c-54.978,0-99.705-44.727-99.705-99.705c0-43.796,28.047-82.031,69.79-95.143
	c4.26-1.338,6.628-5.876,5.29-10.134c-1.338-4.259-5.871-6.629-10.135-5.29c-23.023,7.232-43.686,21.92-58.184,41.359
	c-15.001,20.116-22.93,44.047-22.93,69.208c0,63.892,51.98,115.874,115.874,115.874h10.779c4.465,0,8.084-3.618,8.084-8.084
	S195.791,420.378,191.326,420.378z M511.968,317.905c-1.395-59.419-49.564-107.247-109.662-108.888l-3.9-0.107
	c-15.53-47.14-59.951-79.564-110.069-79.564c-63.893,0-115.874,51.981-115.874,115.874v43.116c0,4.466,3.62,8.084,8.084,8.084
	c4.465,0,8.084-3.618,8.084-8.084v-43.116c0-54.978,44.727-99.705,99.705-99.705c44.874,0,84.438,30.2,96.212,73.442
	c0.937,3.44,4.016,5.861,7.58,5.956l9.737,0.265c51.482,1.406,92.745,42.301,93.937,93.103c0.018,0.794,0.028,1.592,0.028,2.391
	c0,54.978-44.727,99.705-99.705,99.705H223.662c-4.465,0-8.084,3.618-8.084,8.084s3.62,8.084,8.084,8.084h172.463
	c63.893,0,115.874-51.981,115.874-115.874C512,319.748,511.989,318.827,511.968,317.905z"/>
<g>
</g>
<g>
</g>
<g>
</g>
<g>
</g>
<g>
</g>
<g>
</g>
<g>
</g>
<g>
</g>
<g>
</g>
<g>
</g>
<g>
</g>
<g>
</g>
<g>
</g>
<g>
</g>
<g>
</g>
</svg>
